<svg baseProfile="basic" width="188" height="188" xmlns="http://www.w3.org/2000/svg"><g overflow="visible"><path fill="#786FE0" d="M0 48.55h6.1V63.7H0v48.5h6.1v15.15H0v48.55h6.1V188h42.45v-12.1h48.5V188h42.45v-12.1h6.1V0H0v48.55m109.2-42.4h-6.1v36.3H88.8q3.85-3.4 6-8.05 2.25-4.8 2.25-10.1 0-5.35-2.25-10.15-2.15-4.65-6-8.05h50.7v100.05h-6.05v-23.1h-6.05v23.1h-6.1v-23.1h-6.05v23.1h-6.05v-23.1h-6.1v23.1H88.8q3.85-3.45 6-8.05 2.25-4.8 2.25-10.15 0-5.35-2.25-10.15-2.15-4.65-6-8.05h50.65V63.7H12.15V48.55h97.05V6.15M85.65 11.4Q91 16.75 91 24.3q0 7.5-5.35 12.85-5.35 5.3-12.85 5.3-7.55 0-12.85-5.3Q54.6 31.8 54.6 24.3q0-7.55 5.35-12.9 5.3-5.3 12.85-5.3t12.85 5.3m0 63.7Q91 80.4 91 87.95q0 7.5-5.35 12.85t-12.85 5.35q-7.55 0-12.85-5.35-5.35-5.35-5.35-12.85 0-7.55 5.35-12.85 5.3-5.35 12.85-5.35 7.5 0 12.85 5.35M56.8 6.1q-3.85 3.4-6.05 8.05-2.2 4.8-2.2 10.15 0 5.3 2.2 10.1 2.2 4.65 6.05 8.05H42.45V18.2H36.4v24.25h-6.05V18.2h-6.1v24.25H18.2V18.2h-6.05v24.25H6.1V6.1h50.7M30.35 81.9h-6.1v24.25H18.2V81.9h-6.05v24.25H6.1v-36.4h50.7q-3.85 3.4-6.05 8.05-2.2 4.8-2.2 10.15 0 5.35 2.2 10.15 2.2 4.6 6.05 8.05H42.45V81.9H36.4v24.25h-6.05V81.9m26.45 51.55q-3.85 3.4-6.05 8.05-2.2 4.8-2.2 10.1 0 5.35 2.2 10.15 2.2 4.65 6.05 8.05H42.45v-24.25H36.4v24.25h-6.05v-24.25h-6.1v24.25H18.2v-24.25h-6.05v24.25H6.1v-36.35h50.7m3.15 5.3q5.3-5.3 12.85-5.3 7.5 0 12.85 5.3Q91 144.1 91 151.6q0 7.55-5.35 12.85-5.35 5.35-12.85 5.35-7.55 0-12.85-5.35-5.35-5.3-5.35-12.85 0-7.5 5.35-12.85m-47.8-11.4V112.2H139.5v15.15H12.15m0 54.6v-6.05h30.3v6.05h-30.3m121.3-36.4h-6.05v24.25h-6.1v-24.25h-6.05v24.25h-6.05v-24.25h-6.1v24.25H88.8q3.85-3.4 6-8.05 2.25-4.8 2.25-10.15 0-5.3-2.25-10.1-2.15-4.65-6-8.05h50.7v36.35h-6.05v-24.25m-30.35 36.4v-6.05h30.35v6.05H103.1z"/><g transform="translate(145.55 72.8)"><animateTransform attributeName="transform" additive="replace" type="translate" repeatCount="indefinite" dur="4.667s" keyTimes="0;.1;.129;.157;.186;.221;.307;1" values="145.6,17.3;145.658,17.393;147.776,14.412;145.629,17.405;147.226,15.94;145.167,17.961;145.6,17.3;145.6,17.3" keySplines=".5 0 .75 .5;.25 .5 .5 1;.5 0 .75 .5;.065 0 .533 .5;.25 .5 .5 1;.5 0 .75 .5;.1 .1 .9 .9" calcMode="spline"/><animateTransform attributeName="transform" additive="sum" type="rotate" repeatCount="indefinite" dur="4.667s" keyTimes="0;.1;.129;.157;.186;.221;.307;1" values="0,0,0;22.741,0,0;19.771,0,0;24.979,0,0;20.975,0,0;27.204,0,0;0,0,0;0,0,0" keySplines=".5 0 .75 .5;.25 .5 .5 1;.5 0 .75 .5;.065 0 .533 .5;.25 .5 .5 1;.5 0 .75 .5;.1 .1 .9 .9" calcMode="spline"/><animateTransform attributeName="transform" additive="sum" type="scale" repeatCount="indefinite" dur="4.667s" keyTimes="0;.1;.221;.307;1" values="1,1;1,.999;1,.999;1,1;1,1" keySplines=".5 0 .75 .5;.25 .5 .5 1;.5 0 .75 .5;.1 .1 .9 .9" calcMode="spline"/><animateTransform attributeName="transform" additive="sum" type="translate" repeatCount="indefinite" dur="4.667s" keyTimes="0;.1;.129;.157;.186;.221;.307;1" values="-.05,55.5;-.2,55.45;-.25,55.45;-.15,55.4;-.3,55.45;-.25,55.4;-.05,55.5;-.05,55.5" keySplines=".5 0 .75 .5;.25 .5 .5 1;.5 0 .75 .5;.065 0 .533 .5;.25 .5 .5 1;.5 0 .75 .5;.1 .1 .9 .9" calcMode="spline"/><path fill="#786FE0" d="M25.75-56.05q-5.05-5.05-11.6-7.8Q7.4-66.7.05-66.7l-6.1.55q-13 2.2-21.6 12.25-8.45 9.9-8.7 22.8v15.95h-6.1V66.7h84.9v-81.85H36.4v-15.2q0-7.35-2.85-14.1-2.75-6.55-7.8-11.6m-25.7-4.6q12.5 0 21.4 8.9 8.9 8.9 8.9 21.4v15.2h-9.1v-15.2q0-8.75-6.2-15-6.25-6.2-15-6.2-8.8 0-15.05 6.2-6.2 6.25-6.2 15v15.2h-9.1v-15.2q0-12.5 8.9-21.4 8.85-8.9 21.45-8.9m0 15.15q6.25 0 10.7 4.5 4.4 4.4 4.4 10.65v15.2h-30.3v-15.2q0-6.25 4.45-10.65 4.45-4.5 10.75-4.5M36.4-9.1v69.75h-72.75V-9.1H36.4z"/><path fill="#FFF" d="M36.4 60.65V-9.1h-72.75v69.75H36.4M3.05 26.95V48.5h-6.1V26.95q-4.75-1.1-8.3-5.2-3.8-4.35-3.8-9.65 0-6.25 4.45-10.7Q-6.25-3.05.05-3.05q6.25 0 10.7 4.45 4.4 4.45 4.4 10.7 0 5.45-3.45 9.65-3.4 4.15-8.65 5.2M6.45 5.7Q3.8 3.05.05 3.05q-3.8 0-6.45 2.65-2.7 2.65-2.7 6.4 0 3.8 2.7 6.45 2.65 2.7 6.45 2.7 3.75 0 6.4-2.7Q9.1 15.9 9.1 12.1q0-3.7-2.65-6.4m15-57.45q-8.9-8.9-21.4-8.9-12.6 0-21.45 8.9-8.9 8.9-8.9 21.4v15.2h9.1v-15.2q0-8.75 6.2-15 6.25-6.2 15.05-6.2 8.75 0 15 6.2 6.2 6.25 6.2 15v15.2h9.1v-15.2q0-12.5-8.9-21.4z"/><path fill="#F555F0" d="M3.05 48.5V26.95q5.25-1.05 8.65-5.2 3.45-4.2 3.45-9.65 0-6.25-4.4-10.7Q6.3-3.05.05-3.05q-6.3 0-10.75 4.45t-4.45 10.7q0 5.3 3.8 9.65 3.55 4.1 8.3 5.2V48.5h6.1m-3-45.45q3.75 0 6.4 2.65Q9.1 8.4 9.1 12.1q0 3.8-2.65 6.45-2.65 2.7-6.4 2.7-3.8 0-6.45-2.7-2.7-2.65-2.7-6.45 0-3.75 2.7-6.4Q-3.75 3.05.05 3.05z"/></g></g></svg>