<svg baseProfile="basic" width="188" height="188" xmlns="http://www.w3.org/2000/svg"><g overflow="visible"><path fill="#786FE0" d="M42.45 145.55h103.1V42.45H42.45v103.1m84.9-84.9V54.6H48.5v-6.1h90.95v6.1h-6.05v6.05h6.05v78.8H48.5v-78.8h78.85z"/><path fill="#F555F0" d="M94 66.7q-6.8 0-13 2.6-5.95 2.55-10.6 7.15-4.6 4.65-7.15 10.6-2.65 6.25-2.65 13 0 6.8 2.65 12.95 2.55 6 7.15 10.65 4.65 4.6 10.6 7.15 6.2 2.6 13 2.6 6.75 0 12.95-2.6 6-2.55 10.6-7.15 4.6-4.65 7.15-10.65 2.65-6.15 2.65-12.95 0-6.75-2.65-13-2.55-5.95-7.15-10.6-4.6-4.6-10.6-7.15-6.2-2.6-12.95-2.6m3 18.1v-8.25q3.1 3.35 5.35 7.65-2.7.45-5.35.6m-6.05 0q-2.65-.15-5.3-.6 2.2-4.3 5.3-7.65v8.25m0 6.1v6.15H82q.3-3.7 1.3-7.05 3.85.7 7.65.9M97 97.05V90.9q3.8-.2 7.65-.9 1 3.4 1.3 7.05H97M113.45 81q-2.25 1.05-5.05 1.85-2.1-4.55-5.3-8.5 6 2.15 10.35 6.65m-1.4 16.05q-.35-4.55-1.5-8.5 3.65-1.1 6.75-2.65 3.15 5.25 3.8 11.15h-9.05m-32.5-14.2q-2.7-.8-5.05-1.85 4.4-4.5 10.35-6.65-3.2 4-5.3 8.5M70.7 85.9q3.05 1.55 6.7 2.65-1.15 3.95-1.45 8.5h-9.1q.7-5.95 3.85-11.15m3.8 33.2q2.5-1.1 5.05-1.9 2.1 4.55 5.3 8.55-5.9-2.1-10.35-6.65m-7.65-16h9.1q.3 4.55 1.45 8.45-3.75 1.15-6.7 2.65-3.15-5.15-3.85-11.1m39.1 0q-.25 3.45-1.3 7-3.85-.7-7.65-.9v-6.1h8.95m15.15 0q-.65 5.9-3.8 11.1-2.95-1.5-6.75-2.65 1.15-3.9 1.5-8.45h9.05m-12.7 14.15q2.75.8 5.05 1.85-4.4 4.55-10.35 6.65 3.2-3.95 5.3-8.5m-25.1-7.15q-.95-3.3-1.3-7h8.95v6.1q-3.8.2-7.65.9m7.65 13.5q-3.15-3.5-5.3-7.75 2.35-.35 5.3-.55v8.3m6.05 0v-8.3q2.95.2 5.35.55-2.2 4.25-5.35 7.75z"/><g transform="translate(94 94)"><animateTransform attributeName="transform" additive="replace" type="translate" repeatCount="indefinite" dur="16.667s" keyTimes="0;.998;1" values="94,94;94.053,94.048;94.053,94.048"/><animateTransform attributeName="transform" additive="sum" type="rotate" repeatCount="indefinite" dur="16.667s" keyTimes="0;.998;1" values="0,0,0;178.516,0,0;178.516,0,0"/><animateTransform attributeName="transform" additive="sum" type="translate" repeatCount="indefinite" dur="16.667s" keyTimes="0;.998;1" values="0,0;.1,.15;.1,.15"/><path fill="#786FE0" d="M-81.9-12.15q-5 0-8.55 3.55Q-94-5.05-94-.05q0 4.45 2.85 7.85 2.85 3.35 7.15 4.1 3.55 25.05 20.5 44.3Q-46.5 75.45-22 82l1.55-5.85Q-43.1 70.1-58.85 52.3q-15.7-17.75-19.1-40.9 3.65-1.25 5.9-4.35 2.3-3.15 2.3-7.1 0-5-3.55-8.55-3.55-3.55-8.6-3.55m-6.05 12.1q0-2.5 1.8-4.25 1.75-1.8 4.25-1.8t4.3 1.8q1.8 1.75 1.8 4.25 0 2.55-1.8 4.3-1.75 1.8-4.3 1.8-2.5 0-4.25-1.8-1.8-1.75-1.8-4.3M22-82l-1.55 5.85q22.6 6.05 38.4 23.85 15.7 17.75 19.05 40.85-3.6 1.25-5.85 4.35-2.3 3.15-2.3 7.05 0 5.05 3.55 8.6t8.55 3.55q5 0 8.6-3.55Q94 5 94-.05q0-4.4-2.9-7.8-2.85-3.35-7.1-4.1Q80.45-37 63.5-56.2 46.45-75.45 22-82M75.8-.05q0-2.5 1.8-4.25 1.75-1.8 4.25-1.8t4.3 1.8q1.8 1.75 1.8 4.25 0 2.55-1.8 4.3-1.8 1.8-4.3 1.8t-4.25-1.8q-1.8-1.75-1.8-4.3z"/><path fill="#F555F0" d="M11.4 77.95q-1.25-3.65-4.3-5.9Q3.9 69.7 0 69.7q-5.05 0-8.6 3.6-3.55 3.55-3.55 8.55 0 5 3.55 8.6Q-5.05 94 0 94q4.45 0 7.8-2.9 3.35-2.8 4.1-7.1 25.05-3.55 44.25-20.5Q75.45 46.45 82 22l-5.85-1.6Q70.1 43.05 52.3 58.8 34.55 74.55 11.4 77.95M0 75.8q2.5 0 4.3 1.75 1.75 1.8 1.75 4.3 0 2.55-1.75 4.3Q2.5 87.9 0 87.9t-4.3-1.75q-1.75-1.75-1.75-4.3 0-2.5 1.75-4.3Q-2.5 75.8 0 75.8M12.1-81.85q0-5.05-3.55-8.6T0-94q-4.45 0-7.8 2.85-3.35 2.85-4.1 7.15-25.05 3.55-44.3 20.5-19.25 17-25.8 41.45l5.85 1.6q6.05-22.6 23.85-38.4 17.75-15.7 40.85-19.1 1.25 3.65 4.35 5.9 3.15 2.3 7.1 2.3 5 0 8.55-3.55 3.55-3.55 3.55-8.55M0-87.95q2.5 0 4.3 1.8 1.75 1.8 1.75 4.3T4.3-77.6Q2.5-75.8 0-75.8t-4.3-1.8q-1.75-1.75-1.75-4.25t1.75-4.3q1.8-1.8 4.3-1.8z"/></g></g></svg>