<svg baseProfile="basic" width="188" height="188" xmlns="http://www.w3.org/2000/svg"><g overflow="visible"><path fill="#786FE0" d="M184.95 115.2H188V60.65H.05v54.55h3q3.75 0 6.45 2.7 2.65 2.65 2.65 6.45 0 3.75-2.65 6.4-2.7 2.65-6.45 2.65h-3V188H188v-54.6h-3.05q-3.7 0-6.4-2.65-2.65-2.65-2.65-6.4 0-3.8 2.65-6.45 2.65-2.7 6.4-2.7m-3-5.7q-5.25 1.05-8.65 5.2-3.5 4.2-3.5 9.65 0 5.4 3.5 9.6 3.4 4.15 8.65 5.25v42.75H6.1V139.2q5.2-1.1 8.65-5.25 3.45-4.2 3.45-9.6 0-5.45-3.45-9.65-3.45-4.15-8.65-5.2V66.7h30.3v42.45h-6.05v30.35h6.05v6.05h-6.05v30.3H157.7v-30.3h-6.1v-6.05h6.1v-30.35h-6.1V66.7h30.35v42.8M72.8 121.3h-6.1v12.1h-6.05v-12.1H54.6v12.1h-6.05v-12.1h-6.1v12.1H36.4v-18.2h45.55q-3.1 4.15-3.1 9.15 0 4.9 3.1 9.05H72.8v-12.1m-30.35 24.25v-6.05h103.1v6.05H42.45M36.4 169.8v-18.2h45.55q-3.1 4.15-3.1 9.1 0 4.95 3.1 9.1H72.8v-12.15h-6.1v12.15h-6.05v-12.15H54.6v12.15h-6.05v-12.15h-6.1v12.15H36.4m97-48.5h-6.05v12.1h-6.05v-12.1h-6.05v12.1h-9.2q3.1-4.05 3.1-9.05 0-5.05-3.1-9.15h45.55v18.2h-6.05v-12.1h-6.05v12.1h-6.1v-12.1m-45.85-3.4q2.7-2.7 6.45-2.7 3.8 0 6.45 2.7 2.65 2.65 2.65 6.45 0 3.75-2.65 6.4-2.65 2.65-6.45 2.65-3.75 0-6.45-2.65-2.65-2.65-2.65-6.4 0-3.8 2.65-6.45m33.75 51.9v-12.15h-6.05v12.15h-9.2q3.1-4.05 3.1-9.1 0-5-3.1-9.1h45.55v18.2h-6.05v-12.15h-6.05v12.15h-6.1v-12.15h-6.05v12.15h-6.05m-27.3 0q-3.75 0-6.45-2.65-2.65-2.7-2.65-6.45t2.65-6.4q2.7-2.7 6.45-2.7 3.8 0 6.45 2.7 2.65 2.65 2.65 6.4 0 3.75-2.65 6.45-2.65 2.65-6.45 2.65m51.55-60.65H42.45V66.7h103.1v42.45z"/><path fill="#F555F0" d="M18.2 145.55h-6.05v30.3h6.05v-30.3m0-72.75h-6.05v30.3h6.05V72.8m157.7 72.75h-6.1v30.3h6.1v-30.3m0-72.75h-6.1v30.3h6.1V72.8z"/><g transform="matrix(.997 -.082 .082 .997 86.7 54)"><animateTransform attributeName="transform" additive="replace" type="translate" repeatCount="indefinite" dur="3.733s" keyTimes="0;.063;.107;.143;.17;.92899;.991;1" values="46.995,71.804;53.09,66.826;53.118,66.737;52.993,66.814;53,66.7;53,66.7;46.995,71.804;46.995,71.804" keySplines=".5 0 .75 .5;0 0 1 1;0 0 1 1;0 0 1 1;.1 .1 .9 .9;0 0 1 1;.1 .1 .9 .9" calcMode="spline"/><animateTransform attributeName="transform" additive="sum" type="rotate" repeatCount="indefinite" dur="3.733s" keyTimes="0;.063;.107;.143;.17;.92899;.991;1" values="-4.706,0,0;4.927,0,0;2.157,0,0;3.44,0,0;0,0,0;0,0,0;-4.706,0,0;-4.706,0,0" keySplines=".5 0 .75 .5;0 0 1 1;0 0 1 1;0 0 1 1;.1 .1 .9 .9;0 0 1 1;.1 .1 .9 .9" calcMode="spline"/><animateTransform attributeName="transform" additive="sum" type="translate" repeatCount="indefinite" dur="3.733s" keyTimes="0;.063;.107;.143;.17;.92899;.991;1" values="41,-14.55;40.9,-14.55;40.8,-14.45;41,-14.5;41,-14.4;41,-14.4;41,-14.55;41,-14.55" keySplines=".5 0 .75 .5;0 0 1 1;0 0 1 1;0 0 1 1;.1 .1 .9 .9;0 0 1 1;.1 .1 .9 .9" calcMode="spline"/><path fill="#786FE0" d="M22.3-20q-1.05-1.1-1.05-2.6v-14.5q0-5.65-4-9.65t-9.65-4q-5.65 0-9.65 4t-4 9.65v11.05q0 5.15-3.55 8.95-3.5 3.75-8.6 4.15 0-3.75-2.7-6.35-2.65-2.65-6.4-2.65h-27.25q-3.75 0-6.45 2.65-2.65 2.7-2.65 6.45V41.7q0 2.95 1.7 5.3 1.65 2.3 4.35 3.25l6.05.55h24.25q3.8 0 6.45-2.65 2.65-2.65 2.65-6.45h3.65q1.8 0 3.4.85 1.55.85 2.55 2.35 1.9 2.8 4.8 4.35 2.95 1.55 6.25 1.55h46.1q1.4 0 3-.3l6.05-2.7h-.05q2.85-2.15 4.45-5.25 1.7-3.25 1.7-6.9v-39.4q0-6.3-4.45-10.75t-10.7-4.45H24.9q-1.5 0-2.6-1.05M0-26.05V-37.1q0-3.15 2.25-5.35 2.2-2.25 5.35-2.25 3.15 0 5.35 2.25 2.2 2.2 2.2 5.35v14.5q0 4.05 2.85 6.9 2.9 2.85 6.9 2.85h23.65q3.75 0 6.4 2.65 2.65 2.7 2.65 6.45v39.4q0 3.75-2.65 6.45-2.65 2.65-6.4 2.65H2.45q-1.8 0-3.4-.85-1.6-.85-2.6-2.35-1.8-2.8-4.75-4.35-2.9-1.55-6.25-1.55h-3.65v-42.5q7.65-.4 12.9-5.95Q0-18.4 0-26.05m-57.6 13.2q0-1.3.9-2.15.85-.9 2.15-.9h27.25q1.3 0 2.15.9.9.85.9 2.15V41.7q0 1.25-.9 2.15-.85.9-2.15.9h-27.25q-1.3 0-2.15-.9-.9-.9-.9-2.15v-54.55z"/><path fill="#FFF" d="M-56.7-15q-.9.85-.9 2.15V41.7q0 1.25.9 2.15.85.9 2.15.9h27.25q1.3 0 2.15-.9.9-.9.9-2.15v-54.55q0-1.3-.9-2.15-.85-.9-2.15-.9h-27.25q-1.3 0-2.15.9m23.35 44.6q0 3.75-2.65 6.4-2.65 2.65-6.45 2.65-3.75 0-6.45-2.65-2.65-2.65-2.65-6.4 0-3.8 2.65-6.45 2.7-2.65 6.45-2.65 3.8 0 6.45 2.65 2.65 2.65 2.65 6.45m-6.95 2.1q.9-.85.9-2.1 0-1.3-.9-2.15-.85-.9-2.15-.9-1.25 0-2.1.9-.9.85-.9 2.15 0 1.25.9 2.1.85.9 2.1.9 1.3 0 2.15-.9M0-37.1v11.05Q0-18.4-5.3-12.8q-5.25 5.55-12.9 5.95v42.5h3.65q3.35 0 6.25 1.55 2.95 1.55 4.75 4.35 1 1.5 2.6 2.35 1.6.85 3.4.85h46.1q3.75 0 6.4-2.65 2.65-2.7 2.65-6.45v-39.4q0-3.75-2.65-6.45-2.65-2.65-6.4-2.65H24.9q-4 0-6.9-2.85-2.85-2.85-2.85-6.9v-14.5q0-3.15-2.2-5.35-2.2-2.25-5.35-2.25-3.15 0-5.35 2.25Q0-40.25 0-37.1z"/><path fill="#F555F0" d="M-36 36q2.65-2.65 2.65-6.4 0-3.8-2.65-6.45-2.65-2.65-6.45-2.65-3.75 0-6.45 2.65-2.65 2.65-2.65 6.45 0 3.75 2.65 6.4 2.7 2.65 6.45 2.65 3.8 0 6.45-2.65m-3.4-6.4q0 1.25-.9 2.1-.85.9-2.15.9-1.25 0-2.1-.9-.9-.85-.9-2.1 0-1.3.9-2.15.85-.9 2.1-.9 1.3 0 2.15.9.9.85.9 2.15z"/></g></g></svg>