<svg baseProfile="basic" width="188" height="188" xmlns="http://www.w3.org/2000/svg"><g overflow="visible"><g transform="translate(111.9 142.15)"><animateTransform attributeName="transform" additive="replace" type="translate" repeatCount="indefinite" dur="1.3s" keyTimes="0;.359;.744;1" values="111.9,142.15;111.9,145.485;111.9,142.15;111.9,142.15"/><animateTransform attributeName="transform" additive="sum" type="scale" repeatCount="indefinite" dur="1.3s" keyTimes="0;.359;.744;1" values="1,1;1,.846;1,1;1,1"/><animateTransform attributeName="transform" additive="sum" type="translate" repeatCount="indefinite" dur="1.3s" keyTimes="0;.359;.744;1" values="0,0;0,-.1;0,0;0,0"/><path fill="#786FE0" d="M3.05-21.15H-3V21.2h6.05v-42.35z"/></g><g transform="translate(99.8 142.15)"><animateTransform attributeName="transform" additive="replace" type="translate" repeatCount="indefinite" dur="1.3s" keyTimes="0;.23099;.59;.974;1" values="99.8,142.15;99.8,142.15;99.85,145.737;99.8,142.15;99.8,142.15"/><animateTransform attributeName="transform" additive="sum" type="scale" repeatCount="indefinite" dur="1.3s" keyTimes="0;.23099;.59;.974;1" values="1,1;1,1;1,.871;1,1;1,1"/><animateTransform attributeName="transform" additive="sum" type="translate" repeatCount="indefinite" dur="1.3s" keyTimes="0;.23099;.59;.974;1" values="0,0;0,0;-.1,-.1;0,0;0,0"/><path fill="#786FE0" d="M3.05-27.2H-3v54.45h6.05V-27.2z"/></g><g transform="translate(87.7 139.15)"><animateTransform attributeName="transform" additive="replace" type="translate" repeatCount="indefinite" dur="1.3s" keyTimes="0;.12799;.487;.872;1" values="87.7,139.15;87.7,139.15;87.7,141.539;87.7,139.15;87.7,139.15"/><animateTransform attributeName="transform" additive="sum" type="scale" repeatCount="indefinite" dur="1.3s" keyTimes="0;.12799;.487;.872;1" values="1,1;1,1;1,.926;1,1;1,1"/><animateTransform attributeName="transform" additive="sum" type="translate" repeatCount="indefinite" dur="1.3s" keyTimes="0;.12799;.487;.872;1" values="0,0;0,0;0,-.15;0,0;0,0"/><path fill="#786FE0" d="M3.05-30.25H-3v60.5h6.05v-60.5z"/></g><g transform="translate(75.6 139.15)"><animateTransform attributeName="transform" additive="replace" type="translate" repeatCount="indefinite" dur="1.3s" keyTimes="0;.05099;.41;.795;1" values="75.6,139.15;75.6,139.15;75.6,142.144;75.6,139.15;75.6,139.15"/><animateTransform attributeName="transform" additive="sum" type="scale" repeatCount="indefinite" dur="1.3s" keyTimes="0;.05099;.41;.795;1" values="1,1;1,1;1,.876;1,1;1,1"/><animateTransform attributeName="transform" additive="sum" type="translate" repeatCount="indefinite" dur="1.3s" keyTimes="0;.05099;.41;.795;1" values="0,0;0,0;0,-.05;0,0;0,0"/><path fill="#786FE0" d="M3.05-24.2H-3v48.4h6.05v-48.4z"/></g><g><g transform="translate(111.9 106.9)"><animateTransform attributeName="transform" additive="replace" type="translate" repeatCount="indefinite" dur="1.3s" keyTimes="0;.359;.692;1" values="111.9,106.9;111.9,111.9;111.9,116.9;111.9,116.9"/><animate attributeName="opacity" repeatCount="indefinite" dur="1.3s" keyTimes="0;.359;.692;1" values="0;1;0;0"/><path fill="#F555F0" d="M3.05-3H-3v6.05h6.05V-3z"/></g><animate attributeName="display" repeatCount="indefinite" dur="1.3s" keyTimes="0;.718;1" values="inline;none;none"/></g><path fill="#786FE0" d="M66.55 121H60.5v36.3H40.05L93.8 188l53.75-30.7h-20.5v-42.35H121v48.4h3.75l-30.95 17.7-31-17.7h3.75V121M181.5 30.25V145.2h-48.4v6.05h54.45V0H0v151.25h54.45v-6.05H6.05V30.25H181.5m0-24.2V24.2H6.05V6.05H181.5M30.25 12.1H12.1v6.05h18.15V12.1m12.1 6.05V12.1H36.3v6.05h6.05z"/><path fill="#F555F0" d="M164.8 98.25q5.05-5 7.8-11.55 2.85-6.75 2.85-14.1t-2.85-14.1q-2.75-6.55-7.8-11.55-5-5-11.55-7.8-6.75-2.85-14.1-2.85h-.4q-7.65 0-14.65 3.15-7.05 3.1-12.2 8.75L93.8 68.1 75.65 48.2q-5.1-5.65-12.15-8.75-7.05-3.15-14.7-3.15h-.4q-7.35 0-14.1 2.85-6.5 2.8-11.55 7.8-5 5-7.8 11.55-2.85 6.75-2.85 14.1t2.85 14.1q2.8 6.55 7.8 11.55 5.05 5 11.55 7.8 6.75 2.85 14.1 2.85h.4q7.65 0 14.7-3.1 7.05-3.1 12.15-8.75L93.8 77.1l18.1 19.95q5.15 5.65 12.2 8.75 7 3.1 14.65 3.1h.4q7.35 0 14.1-2.85 6.55-2.8 11.55-7.8m-38.25-53.3q5.85-2.55 12.2-2.55h.4q12.5 0 21.4 8.85 8.85 8.85 8.85 21.35 0 12.5-8.85 21.35-8.9 8.9-21.4 8.9h-.4q-6.35 0-12.25-2.6-5.85-2.6-10.15-7.3L97.85 72.6l18.5-20.35q4.35-4.7 10.2-7.3M48.4 42.4h.4q6.4 0 12.25 2.55 5.85 2.6 10.15 7.3L89.7 72.6 71.2 92.95q-4.3 4.7-10.15 7.3-5.85 2.6-12.25 2.6h-.4q-12.5 0-21.4-8.9-8.85-8.85-8.85-21.35 0-12.5 8.85-21.35 8.9-8.85 21.4-8.85z"/></g></svg>