<?xml version="1.0" encoding="UTF-8"?>
<svg width="92px" height="60px" viewBox="0 0 92 60" version="1.1" xmlns="http://www.w3.org/2000/svg" xmlns:xlink="http://www.w3.org/1999/xlink">
    <!-- Generator: Sketch 46.2 (44496) - http://www.bohemiancoding.com/sketch -->
    <title>Group 3</title>
    <desc>Created with Sketch.</desc>
    <defs></defs>
    <g id="Page-1" stroke="none" stroke-width="1" fill="none" fill-rule="evenodd">
        <g id="Desktop-HD" transform="translate(-394.000000, -44.000000)">
            <g id="Group-3" transform="translate(394.000000, 44.000000)">
                <path d="M0,28.3912094 C0,16.0248859 10.0735931,6 22.5,6 C34.9264069,6 45,16.0248859 45,28.3912094 C45,34.5961145 42.4638585,40.2115361 38.3668902,44.2668752 L23.6650254,58.8920758 L23.6650254,58.8920758 C23.0227083,59.5310434 21.9848937,59.5311708 21.3424197,58.8923609 L6.61426293,44.2481979 C2.52836402,40.1943009 0,34.586593 0,28.3912094 Z" id="Borda" fill="#2C2571"></path>
                <path d="M32.2835821,35.9601227 C33.2315335,35.9601227 34,36.7017369 34,37.6165644 L34,41.3435583 C34,42.2583858 33.2315335,43 32.2835821,43 L12.8880597,43 C11.9401083,43 11.1716418,42.2583858 11.1716418,41.3435583 L11.1716418,37.6165644 C11.1716418,37.2158973 11.3190474,36.8484555 11.5643779,36.5619908 L24.3100801,23.0398773 L12.7164179,23.0398773 C11.7684665,23.0398773 11,22.2982631 11,21.3834356 L11,17.6564417 C11,16.7416142 11.7684665,16 12.7164179,16 L32.1119403,16 C33.0598917,16 33.8283582,16.7416142 33.8283582,17.6564417 L33.8283582,21.3834356 C33.8283582,21.8208962 33.6526369,22.218749 33.3655966,22.5148422 L21.8458063,35.9593152 L32.2835821,35.9601227 Z" id="Combined-Shape" fill="#FFFFFF"></path>
                <circle id="Oval-3-Copy" fill="#2C2571" cx="88" cy="9" r="4"></circle>
                <rect id="Rectangle-Copy-2" fill="#FFFFFF" x="84" y="16" width="8" height="27" rx="0.87831656"></rect>
                <path d="M44.391466,16 L39.0978957,16 L39.0978957,16 C38.4915446,16 38,16.4915446 38,17.0978957 L38,31.1564417 C38,37.6974583 43.2785771,43 50,43 C56.7214229,43 62,37.6974583 62,31.1564417 L62,17.0978957 L62,17.0978957 C62,16.4915446 61.5084554,16 60.9021043,16 L55.608534,16 L55.608534,16 C55.0021829,16 54.5106383,16.4915446 54.5106383,17.0978957 L54.5106383,31.5705521 C54.5106383,33.9033623 52.3971508,35.9601227 50,35.9601227 C47.6028492,35.9601227 45.4893617,33.9033623 45.4893617,31.5705521 L45.4893617,17.0978957 L45.4893617,17.0978957 C45.4893617,16.4915446 44.9978171,16 44.391466,16 Z" id="Combined-Shape" fill="#FFFFFF"></path>
                <path d="M73.2588642,0.879327413 L66.6702746,3.66555606 L66.6702746,3.66555606 C66.2639995,3.83736449 66,4.23564148 66,4.67675096 L66,34.7264844 C66,39.2958209 69.5912988,43 74.0213904,43 L79.9021043,43 L79.9021043,43 C80.5084554,43 81,42.5084554 81,41.9021043 L81,36.4035262 L81,36.4035262 C81,35.7971752 80.5084554,35.3056305 79.9021043,35.3056305 L77.2299465,35.3056305 C75.5388589,35.3056305 74.1533349,33.9562365 74.0302785,32.2444297 L74.0216226,1.38477089 L74.0216226,1.38477089 C74.0215376,1.08159537 73.7756963,0.835891997 73.4725208,0.835977036 C73.3991199,0.835997624 73.3264686,0.850738396 73.2588642,0.879327413 Z" id="Combined-Shape-Copy-5" fill="#FFFFFF"></path>
            </g>
        </g>
    </g>
</svg>